<svg xmlns="http://www.w3.org/2000/svg" version="1.1" xmlns:xlink="http://www.w3.org/1999/xlink" xmlns:svgjs="http://svgjs.dev/svgjs" viewBox="0 0 1920 1080" class="overflow-hidden rounded-md drop-shadow-lg transition duration-300" style="overflow: hidden; height: 85vh;"><rect width="1920" height="1080" fill="#3c8ea1"/><g clip-path="url(&quot;#SvgjsClipPath2788&quot;)"><g transform="matrix(0.9062123666477298,-0.7080106966245077,0.7080106966245077,0.9062123666477298,-294.65835869325656,712.4539966247885)"><path d="M0,-1080C-8.129691915358046,-1008.2715895481367,-42.94269852672994,-777.3935711043089,-48.778151492148275,-649.6295372888203C-54.61360445756661,-521.8655034733317,-44.63208471650591,-454.40957099907047,-35.01271779251,-313.4157971070683C-25.393350868514098,-172.42202321506608,-6.941884207319591,47.481540266559165,8.938050051827162,196.3331060631929C24.817984310973912,345.1846718598266,60.75456833992273,461.4020391247942,60.266887762370516,579.6935976727341C59.779207184818304,697.985156220674,19.985659890190483,765.3039225202309,6.011966586513907,906.0824573508322C-7.961726717162671,1046.8609921814336,-30.696342442198084,1272.9914928482408,-23.575272059688963,1424.364806656342C-16.454201677179842,1575.738120464443,44.809176871620465,1691.716474642162,48.738388881568625,1814.3223401994383C52.667600891516784,1936.9282057567145,8.123064813594771,2102.387056699906,0,2160L 1920 2160 L 1920 -1080 Z" fill="url(&quot;#SvgjsLinearGradient2776&quot;)"/><path d="M160,-1080C161.08696438066116,-995.2915276177444,169.870608110285,-732.4765254840495,166.52178628396695,-571.7491657064659C163.1729644576489,-411.0218059288822,151.87026771950565,-260.7942349685866,139.90706904209168,-115.63584133449801C127.94387036467772,29.522552299590572,95.53708121392108,146.73018337325473,94.74259421948321,299.2011960980657C93.94810722504533,451.67220882287666,118.21243833803639,652.1775669285656,135.14014707546443,799.1902350143678C152.06785581289245,946.2029031001699,195.95077030235873,1025.3618270009028,196.30884664405139,1181.2772046128787C196.66692298574404,1337.1925822248545,143.34007956629563,1571.5620347883696,137.2886051256204,1734.6825006862232C131.23713068494516,1897.8029665840768,156.21476752093673,2089.1137501143703,160,2160L 1920 2160 L 1920 -1080 Z" fill="url(&quot;#SvgjsLinearGradient2777&quot;)"/><path d="M320,-1080C314.7491266671171,-1015.2360953687291,277.1065103061874,-852.8597005022948,288.4947600027026,-691.4165722123748C299.88300969921784,-529.9734439224549,389.7253251391194,-283.49854136379395,388.3294981790914,-111.34123026048039C386.9336712190634,60.816080842833145,300.21546429502524,195.31037563859766,280.1197982425346,341.5272944075063C260.024132190044,487.744213176415,272.23721905818155,620.5660537958843,267.75550186414756,765.9602823529715C263.27378467011357,911.3545109100587,243.28860613621003,1055.3803648010837,253.22949507833061,1213.8926657500297C263.1703840204512,1372.4049666989756,316.2724180299261,1559.3495323383192,327.400835516871,1717.0340880466476C338.5292530038159,1874.718643754976,321.2334725861452,2086.1723480077744,320,2160L 1920 2160 L 1920 -1080 Z" fill="url(&quot;#SvgjsLinearGradient2778&quot;)"/><path d="M480,-1080C488.8313475786987,-1008.7582811684451,529.2921848484907,-789.2162584222193,532.9880854721921,-652.549687010671C536.6839860958935,-515.8831155991228,515.5387566787265,-380.8603329827056,502.17540374220835,-260.0005715307104C488.81205080569015,-139.14081007871516,446.0600899836113,-68.80533732308697,452.807967853083,72.60888170130008C459.55584572255475,214.02310072568713,546.1351134229994,440.2554510894121,542.6626709590386,588.4847426156119C539.1902284950777,736.7140341418118,443.31179421091184,826.9773193605113,431.9733130693181,961.9846308584991C420.6348319277244,1096.991942356487,454.24186085728826,1266.0114839774624,474.63178410947626,1398.5286116035388C495.02170736166426,1531.0457392296153,553.4181499340255,1630.1754985488815,554.3128525824461,1757.0873966149584C555.2075552308668,1883.9992946810353,492.38547543040767,2092.8478994358265,480,2160L 1920 2160 L 1920 -1080 Z" fill="url(&quot;#SvgjsLinearGradient2779&quot;)"/><path d="M640,-1080C641.3254933911323,-1008.7787053288246,645.256613568043,-799.1084374633488,647.9529603467942,-652.6722319729472C650.6493071255453,-506.23602648254564,662.1597557715367,-367.35102318287056,656.1780806725071,-201.38276705759068C650.1964055734776,-35.41451093231083,619.9545610889463,176.82377276649194,612.062909752617,343.137304778732C604.1712584162876,509.45083679097206,604.5583880383352,656.8587642653647,608.8281726545313,796.4984250158496C613.0979572707273,936.1380857663346,623.0562024534587,1035.6036288170367,637.6816174497931,1180.9752692816419C652.3070324461274,1326.346909746247,696.1942655408363,1505.5574793504213,696.5806626325375,1668.728267803481C696.9670597242387,1831.8990562565407,649.4301104387563,2078.1213779672466,640,2160L 1920 2160 L 1920 -1080 Z" fill="url(&quot;#SvgjsLinearGradient2780&quot;)"/><path d="M800,-1080C795.8304101507689,-1000.4548370893409,773.5502678751758,-768.0026662448221,774.9824609046133,-602.7290225360457C776.4146539340508,-437.4553788272693,807.4981802900187,-252.28379956613134,808.5931581766247,-88.35813774734171C809.6881360632307,75.5675240714479,783.2982721507335,230.48276569572815,781.5523282242492,380.8249483766921C779.8063842977649,531.167131057656,805.9362488930753,664.1213747014847,798.1174946177192,813.6949583384419C790.2987403423631,963.2685419753991,743.9716390147998,1123.9777829338045,734.6398025721124,1278.266450198435C725.307966129425,1432.5551174630655,731.2331097236138,1592.4713702926301,742.126475961595,1739.4269619262243C753.0198421995763,1886.3825535598185,790.3544126602658,2089.9044936543705,800,2160L 1920 2160 L 1920 -1080 Z" fill="url(&quot;#SvgjsLinearGradient2781&quot;)"/><path d="M960,-1080C951.9746972225497,-983.119217633062,903.0710665836443,-677.729978865485,911.8481833352982,-498.71530579837224C920.6253000869522,-319.7006327312595,998.2118845939162,-180.35480200029417,1012.6627005099238,-5.91196159732354C1027.1135164259313,168.5308788056471,998.1975277522682,358.18353196008627,998.5530788313433,547.9417366194515C998.9086299104184,737.6999412788167,1026.5358879200844,941.9142509632159,1014.7960069843741,1132.637266358868C1003.0561260486638,1323.36028175452,937.2464610478108,1521.0527067198418,928.1137932170818,1692.279828993364C918.9811253863528,1863.506951266886,954.6856322028469,2082.0466381655606,960,2160L 1920 2160 L 1920 -1080 Z" fill="url(&quot;#SvgjsLinearGradient2782&quot;)"/><path d="M1120,-1080C1113.5690103426293,-1017.4591008554614,1085.7784237471055,-831.4296030977116,1081.4140620557755,-704.7546051327682C1077.0497003644455,-578.0796071678249,1099.3895365152239,-449.27524537352076,1093.8138298520194,-319.9500122103398C1088.2381231888148,-190.62477904715885,1054.0373100424176,-69.08423496648123,1047.959822076549,71.19679384631766C1041.8823341106804,211.47782265911655,1057.3658593383018,384.3282548799374,1057.3489020568072,521.7361606664534C1057.3319447753126,659.1440664529695,1029.2482494234298,767.6639569840959,1047.8580783875811,895.644228565414C1066.4679073517325,1023.6245001467321,1162.1032880274718,1135.1774414006086,1169.0078758417148,1289.6177901543624C1175.912463655958,1444.0581389081162,1097.4535845799924,1677.2226194469974,1089.28560527304,1822.286321087937C1081.1176259660874,1967.3500227288766,1114.8809342121733,2103.7143868479893,1120,2160L 1920 2160 L 1920 -1080 Z" fill="url(&quot;#SvgjsLinearGradient2783&quot;)"/><path d="M1280,-1080C1277.7266335188262,-978.5287431149538,1275.9927755044355,-695.9998451525954,1266.3598011129573,-471.1724586897231C1256.726826721479,-246.34507222685082,1218.8191138779819,55.93659851187428,1222.2021536511309,268.9643187772338C1225.5851934242799,481.9920390425933,1278.057807427415,609.1356532795496,1286.6580397518514,806.993862902434C1295.258272076288,1004.8520725253184,1274.9132208897258,1230.6125536649458,1273.8035475977506,1456.1135765145402C1272.6938743057754,1681.6145993641346,1278.9672579329585,2042.6855960857567,1280,2160L 1920 2160 L 1920 -1080 Z" fill="url(&quot;#SvgjsLinearGradient2784&quot;)"/><path d="M1440,-1080C1436.3149875224206,-1006.7564874580335,1410.8488465727378,-772.3234135173652,1417.8899251345233,-640.538924748201C1424.9310036963088,-508.75443597903677,1466.3732235484638,-427.10804774573256,1482.2464713707138,-289.2930673850144C1498.1197191929639,-151.47808702429626,1523.7854279716223,41.540673224976445,1513.1294120680232,186.35095741610795C1502.473396164424,331.16124160723945,1440.269117383147,455.46050125108604,1418.3103759491194,579.5686377617747C1396.3516345150917,703.6767742724633,1384.1926831106955,813.9333771012482,1381.3769634638575,930.9997764802397C1378.5612438170194,1048.0661758592312,1387.9393963264793,1134.983678856742,1401.4160580680907,1281.9670340357236C1414.8927198097022,1428.9503892147052,1455.806276924875,1666.561079893416,1462.2369339135266,1812.8999075541287C1468.6675909021783,1959.2387352148414,1443.7061556522544,2102.149984592355,1440,2160L 1920 2160 L 1920 -1080 Z" fill="url(&quot;#SvgjsLinearGradient2785&quot;)"/><path d="M1600,-1080C1610.851958079642,-1006.896282876224,1667.5929028555909,-773.6946594010014,1665.1117484778508,-641.3776972573434C1662.6305941001108,-509.0607351136852,1598.0663942357696,-422.3945096504144,1585.1130737335602,-286.09822713805113C1572.1597532313508,-149.8019446256878,1584.7021749346172,27.334469419684552,1587.3918254645946,176.39999781683667C1590.081475994572,325.4655262139888,1608.1999824260395,476.3403531925362,1601.2509769134244,608.2949432448615C1594.3019714008094,740.2495332971869,1542.521211319334,832.5133420778283,1545.697792388904,968.1275381307885C1548.8743734584739,1103.7417341837486,1605.6029937987807,1281.082555048828,1620.3104633308444,1421.9801195626228C1635.017932862908,1562.8776840764176,1637.3276868030937,1690.5096118073284,1633.9426095812862,1813.512925213558C1630.5575323594787,1936.5162386197876,1605.6571015968811,2102.2521542022596,1600,2160L 1920 2160 L 1920 -1080 Z" fill="url(&quot;#SvgjsLinearGradient2786&quot;)"/><path d="M1760,-1080C1771.2280594988217,-935.8795672255221,1815.3632602811165,-496.5307453130687,1827.3683569929299,-215.2774033531331C1839.3734537047433,65.97593860680243,1831.7193606681235,343.57286798154115,1832.03058027088,607.5200517596132C1832.3417998736363,871.4672355376854,1841.2407713212824,1109.6590412752348,1829.235674609469,1368.4056993152992C1817.2305778976556,1627.1523573553636,1771.5392791015781,2028.06761655255,1760,2160L 1920 2160 L 1920 -1080 Z" fill="url(&quot;#SvgjsLinearGradient2787&quot;)"/></g></g><defs><linearGradient x1="0.1" y1="0" x2="0" y2="1" id="SvgjsLinearGradient2776"><stop stop-color="#3c8ea1" offset="0"/><stop stop-color="#3c9fa1" offset="0"/></linearGradient><linearGradient x1="0.1" y1="0" x2="0" y2="1" id="SvgjsLinearGradient2777"><stop stop-color="#429cb1" offset="0"/><stop stop-color="#42aeb1" offset="0.08333333333333333"/></linearGradient><linearGradient x1="0.1" y1="0" x2="0" y2="1" id="SvgjsLinearGradient2778"><stop stop-color="#4da8bd" offset="0"/><stop stop-color="#4dbbbd" offset="0.16666666666666666"/></linearGradient><linearGradient x1="0.1" y1="0" x2="0" y2="1" id="SvgjsLinearGradient2779"><stop stop-color="#5eb0c3" offset="0"/><stop stop-color="#5ec1c3" offset="0.25"/></linearGradient><linearGradient x1="0.1" y1="0" x2="0" y2="1" id="SvgjsLinearGradient2780"><stop stop-color="#6eb8c9" offset="0"/><stop stop-color="#6ec7c9" offset="0.3333333333333333"/></linearGradient><linearGradient x1="0.1" y1="0" x2="0" y2="1" id="SvgjsLinearGradient2781"><stop stop-color="#7fc0cf" offset="0"/><stop stop-color="#7fcdcf" offset="0.4166666666666667"/></linearGradient><linearGradient x1="0.1" y1="0" x2="0" y2="1" id="SvgjsLinearGradient2782"><stop stop-color="#8fc8d5" offset="0"/><stop stop-color="#8fd4d5" offset="0.5"/></linearGradient><linearGradient x1="0.1" y1="0" x2="0" y2="1" id="SvgjsLinearGradient2783"><stop stop-color="#9fd0db" offset="0"/><stop stop-color="#9fdadb" offset="0.5833333333333334"/></linearGradient><linearGradient x1="0.1" y1="0" x2="0" y2="1" id="SvgjsLinearGradient2784"><stop stop-color="#b0d8e2" offset="0"/><stop stop-color="#b0e0e2" offset="0.6666666666666666"/></linearGradient><linearGradient x1="0.1" y1="0" x2="0" y2="1" id="SvgjsLinearGradient2785"><stop stop-color="#c0e0e8" offset="0"/><stop stop-color="#c0e7e8" offset="0.75"/></linearGradient><linearGradient x1="0.1" y1="0" x2="0" y2="1" id="SvgjsLinearGradient2786"><stop stop-color="#d1e8ee" offset="0"/><stop stop-color="#d1edee" offset="0.8333333333333334"/></linearGradient><linearGradient x1="0.1" y1="0" x2="0" y2="1" id="SvgjsLinearGradient2787"><stop stop-color="#e1f0f4" offset="0"/><stop stop-color="#e1f3f4" offset="0.9166666666666666"/></linearGradient><clipPath id="SvgjsClipPath2788"><rect width="1920" height="1080"/></clipPath></defs></svg>